<?xml version="1.0" encoding="utf-8"?>
<!-- Generator: Adobe Illustrator 28.3.0, SVG Export Plug-In . SVG Version: 6.00 Build 0)  -->
<svg version="1.1"
	 id="svg1" xmlns:svg="http://www.w3.org/2000/svg" xmlns:sodipodi="http://sodipodi.sourceforge.net/DTD/sodipodi-0.dtd" xmlns:inkscape="http://www.inkscape.org/namespaces/inkscape"
	 xmlns="http://www.w3.org/2000/svg" xmlns:xlink="http://www.w3.org/1999/xlink" x="0px" y="0px" viewBox="0 0 199.2 98.4"
	 style="enable-background:new 0 0 199.2 98.4;" xml:space="preserve">
<style type="text/css">
	.st0{fill:#FFFFFF;}
	.st1{fill:#00B477;}
</style>
<sodipodi:namedview  bordercolor="#000000" borderopacity="0.25" id="namedview1" inkscape:deskcolor="#d1d1d1" inkscape:document-units="mm" inkscape:pagecheckerboard="0" inkscape:pageopacity="0.0" inkscape:showpageshadow="2" pagecolor="#ffffff">
	</sodipodi:namedview>
<defs>
	<inkscape:path-effect  effect="spiro" id="path-effect8-9" is_visible="true" lpeversion="1"></inkscape:path-effect>
	<inkscape:path-effect  effect="spiro" id="path-effect24-4" is_visible="true" lpeversion="1"></inkscape:path-effect>
</defs>
<g id="layer1" transform="translate(-124.05645,-92.918065)" inkscape:groupmode="layer" inkscape:label="Layer 1">
	
		<path id="path8-9" inkscape:export-filename="fullprologo1.svg" inkscape:export-xdpi="1612.1769" inkscape:export-ydpi="1612.1769" inkscape:original-d="m 1322.2897,1321.5826 c -15.7921,-2.1214 -62.6968,24.513 -94.0452,36.7695 -31.3484,12.2565 -41.955,61.2826 -62.9325,91.9239 -20.9775,30.6413 -16.0278,37.7124 -24.0417,56.5685 -8.0138,18.8562 -7.5424,45.7263 -11.3137,68.5894 -3.7712,22.8631 176.3053,36.7696 264.458,55.1543 88.1526,18.3848 44.7834,-44.312 67.1751,-66.468 22.3917,-22.156 13.6707,-79.6674 20.5061,-119.5011 6.8354,-39.8336 -74.9533,-77.7817 -112.43,-116.6726 -37.4766,-38.8908 -31.5841,-4.2426 -47.3761,-6.3639 z" inkscape:path-effect="#path-effect8-9" d="
		M177.2,92.9c-9.5,0.2-18.8,4-25.9,10.1c-7.8,6.7-12.9,16-17.4,25.3c-2.4,5.1-4.7,10.3-6.6,15.6c-2.2,6.1-3.8,12.5-3.1,18.9
		c0.8,7.5,4.7,14.4,10.4,19.4c5.7,4.9,12.9,7.8,20.4,8.7c7.4,0.9,15.1-0.2,22.2-2.6c7.1-2.4,13.8-6,19.9-10.3
		c7.2-5,13.9-10.9,18.5-18.3c6.1-9.7,8.2-21.8,5.7-33c-1.8-7.6-5.7-14.7-11.1-20.3c-5.4-5.6-12.4-9.7-19.9-11.9
		C186.1,93.5,181.7,92.8,177.2,92.9L177.2,92.9z"/>
	<circle id="path6-8-8" class="st0" cx="270.8" cy="134.1" r="22.6"/>
	<circle id="circle6-0" class="st0" cx="177.7" cy="134.1" r="22.6"/>
	
		<path id="path22-2" inkscape:original-d="m 1322.2897,1321.5826 c -15.7921,-2.1214 -62.6968,24.513 -94.0452,36.7695 -31.3484,12.2565 -41.955,61.2826 -62.9325,91.9239 -20.9775,30.6413 -16.0278,37.7124 -24.0417,56.5685 -8.0138,18.8562 -7.5424,45.7263 -11.3137,68.5894 -3.7712,22.8631 176.3053,36.7696 264.458,55.1543 88.1526,18.3848 44.7834,-44.312 67.1751,-66.468 22.3917,-22.156 13.6707,-79.6674 20.5061,-119.5011 6.8354,-39.8336 -74.9533,-77.7817 -112.43,-116.6726 -37.4766,-38.8908 -31.5841,-4.2426 -47.3761,-6.3639 z" inkscape:path-effect="#path-effect24-4" d="
		M270,92.9c9.5,0.2,18.8,4,25.9,10.1c7.8,6.7,12.9,16,17.4,25.3c2.4,5.1,4.7,10.3,6.6,15.6c2.2,6.1,3.8,12.5,3.1,18.9
		c-0.8,7.5-4.7,14.4-10.4,19.4c-5.7,4.9-12.9,7.8-20.4,8.7s-15.1-0.2-22.2-2.6c-7.1-2.4-13.8-6-19.9-10.3
		c-7.2-5-13.9-10.9-18.5-18.3c-6.1-9.7-8.2-21.8-5.7-33c1.8-7.6,5.7-14.7,11.1-20.3c5.4-5.6,12.4-9.7,19.9-11.9
		C261.2,93.5,265.6,92.8,270,92.9L270,92.9z"/>
	<circle id="circle22-6" class="st0" cx="269.6" cy="134.1" r="22.6"/>
	<circle id="circle23-1" class="st1" cx="269.9" cy="135.2" r="19.5"/>
	<circle id="circle2" class="st1" cx="178.4" cy="135.2" r="19.5"/>
</g>
</svg>
