<?xml version="1.0" encoding="UTF-8" standalone="no"?>
<!-- Created with Inkscape (http://www.inkscape.org/) -->

<svg
   width="70.262161mm"
   height="34.702404mm"
   viewBox="0 0 70.262161 34.702404"
   version="1.1"
   id="svg1"
   xml:space="preserve"
   xmlns:inkscape="http://www.inkscape.org/namespaces/inkscape"
   xmlns:sodipodi="http://sodipodi.sourceforge.net/DTD/sodipodi-0.dtd"
   xmlns="http://www.w3.org/2000/svg"
   xmlns:svg="http://www.w3.org/2000/svg"><sodipodi:namedview
     id="namedview1"
     pagecolor="#ffffff"
     bordercolor="#000000"
     borderopacity="0.25"
     inkscape:showpageshadow="2"
     inkscape:pageopacity="0.0"
     inkscape:pagecheckerboard="0"
     inkscape:deskcolor="#d1d1d1"
     inkscape:document-units="mm" /><defs
     id="defs1"><inkscape:path-effect
       effect="spiro"
       id="path-effect8-9"
       is_visible="true"
       lpeversion="1" /><inkscape:path-effect
       effect="spiro"
       id="path-effect24-4"
       is_visible="true"
       lpeversion="1" /></defs><g
     inkscape:label="Layer 1"
     inkscape:groupmode="layer"
     id="layer1"
     transform="translate(-124.05645,-92.918065)"><path
       style="fill:#000000;stroke-width:0.377953"
       d="m 1322.2897,1321.5826 c -34.3221,0.8418 -68.0656,14.3245 -94.0452,36.7695 -28.307,24.4558 -46.7898,58.1781 -62.9325,91.9239 -8.8455,18.4913 -17.1853,37.2511 -24.0417,56.5685 -7.8167,22.0231 -13.7403,45.3466 -11.3137,68.5894 2.8248,27.0577 17.2009,52.371 37.7608,70.1864 20.5599,17.8154 46.9579,28.3216 73.9738,31.5217 27.0158,3.2001 54.6132,-0.6853 80.4238,-9.2824 25.8106,-8.5971 49.9126,-21.8143 72.2996,-37.2714 26.1051,-18.0243 50.378,-39.5569 67.1751,-66.468 21.961,-35.1844 29.8837,-79.0995 20.5061,-119.5011 -6.4008,-27.5767 -20.6275,-53.2426 -40.3599,-73.5423 -19.7323,-20.2997 -44.8906,-35.2108 -72.0701,-43.1303 -15.3584,-4.4751 -31.3838,-6.7561 -47.3761,-6.3639 z"
       id="path8-9"
       transform="matrix(0.09728301,0,0,0.09728301,14.184433,-35.645247)"
       inkscape:original-d="m 1322.2897,1321.5826 c -15.7921,-2.1214 -62.6968,24.513 -94.0452,36.7695 -31.3484,12.2565 -41.955,61.2826 -62.9325,91.9239 -20.9775,30.6413 -16.0278,37.7124 -24.0417,56.5685 -8.0138,18.8562 -7.5424,45.7263 -11.3137,68.5894 -3.7712,22.8631 176.3053,36.7696 264.458,55.1543 88.1526,18.3848 44.7834,-44.312 67.1751,-66.468 22.3917,-22.156 13.6707,-79.6674 20.5061,-119.5011 6.8354,-39.8336 -74.9533,-77.7817 -112.43,-116.6726 -37.4766,-38.8908 -31.5841,-4.2426 -47.3761,-6.3639 z"
       inkscape:path-effect="#path-effect8-9"
       inkscape:export-filename="fullprologo1.svg"
       inkscape:export-xdpi="1612.1769"
       inkscape:export-ydpi="1612.1769" /><circle
       style="fill:#4d4d4d;stroke-width:0.0367684"
       id="path6-0"
       cx="142.95836"
       cy="107.1617"
       r="7.979579" /><circle
       style="fill:#ffffff;stroke-width:0.0367684"
       id="path6-8-8"
       cx="175.80724"
       cy="107.43564"
       r="7.979579" /><circle
       style="fill:#ffffff;stroke-width:0.0367684"
       id="circle6-0"
       cx="142.96396"
       cy="107.43564"
       r="7.979579" /><path
       style="fill:#000000;stroke-width:0.377953"
       d="m 1322.2897,1321.5826 c -34.3221,0.8418 -68.0656,14.3245 -94.0452,36.7695 -28.307,24.4558 -46.7898,58.1781 -62.9325,91.9239 -8.8455,18.4913 -17.1853,37.2511 -24.0417,56.5685 -7.8167,22.0231 -13.7403,45.3466 -11.3137,68.5894 2.8248,27.0577 17.2009,52.371 37.7608,70.1864 20.5599,17.8154 46.9579,28.3216 73.9738,31.5217 27.0158,3.2001 54.6132,-0.6853 80.4238,-9.2824 25.8106,-8.5971 49.9126,-21.8143 72.2996,-37.2714 26.1051,-18.0243 50.378,-39.5569 67.1751,-66.468 21.961,-35.1844 29.8837,-79.0995 20.5061,-119.5011 -6.4008,-27.5767 -20.6275,-53.2426 -40.3599,-73.5423 -19.7323,-20.2997 -44.8906,-35.2108 -72.0701,-43.1303 -15.3584,-4.4751 -31.3838,-6.7561 -47.3761,-6.3639 z"
       id="path22-2"
       transform="matrix(-0.09728301,0,0,0.09728301,304.19063,-35.645227)"
       inkscape:original-d="m 1322.2897,1321.5826 c -15.7921,-2.1214 -62.6968,24.513 -94.0452,36.7695 -31.3484,12.2565 -41.955,61.2826 -62.9325,91.9239 -20.9775,30.6413 -16.0278,37.7124 -24.0417,56.5685 -8.0138,18.8562 -7.5424,45.7263 -11.3137,68.5894 -3.7712,22.8631 176.3053,36.7696 264.458,55.1543 88.1526,18.3848 44.7834,-44.312 67.1751,-66.468 22.3917,-22.156 13.6707,-79.6674 20.5061,-119.5011 6.8354,-39.8336 -74.9533,-77.7817 -112.43,-116.6726 -37.4766,-38.8908 -31.5841,-4.2426 -47.3761,-6.3639 z"
       inkscape:path-effect="#path-effect24-4" /><circle
       style="fill:#ffffff;stroke-width:0.0367684"
       id="circle22-6"
       cx="-175.41115"
       cy="107.43564"
       r="7.979579"
       transform="scale(-1,1)" /><circle
       style="fill:#000000;stroke-width:0.031712"
       id="circle23-1"
       cx="-175.4957"
       cy="107.82665"
       r="6.882225"
       transform="scale(-1,1)" /><circle
       style="fill:#000000;stroke-width:0.031712"
       id="circle2"
       cx="-143.21696"
       cy="107.82665"
       r="6.882225"
       transform="scale(-1,1)" /></g></svg>
